<svg width="162" height="40" viewBox="0 0 162 40" fill="none" xmlns="http://www.w3.org/2000/svg"><path d="M53.2947 18.4857C53.5947 17.9337 54.0387 17.5137 54.6267 17.2257C55.2147 16.9377 55.9287 16.7937 56.7687 16.7937V18.4677C56.6727 18.4557 56.5407 18.4497 56.3727 18.4497C55.4367 18.4497 54.6987 18.7317 54.1587 19.2957C53.6307 19.8477 53.3667 20.6398 53.3667 21.6718V26.4237H51.6387V16.8837H53.2947V18.4857ZM68.2735 16.8837V26.4237H66.6355V24.9838C66.2875 25.4757 65.8255 25.8597 65.2495 26.1357C64.6855 26.3997 64.0675 26.5317 63.3955 26.5317C62.1235 26.5317 61.1215 26.1838 60.3895 25.4878C59.6575 24.7797 59.2915 23.7417 59.2915 22.3737V16.8837H61.0195V22.1757C61.0195 23.0997 61.2415 23.8017 61.6855 24.2817C62.1295 24.7497 62.7655 24.9838 63.5935 24.9838C64.5055 24.9838 65.2255 24.7077 65.7535 24.1557C66.2815 23.6037 66.5455 22.8237 66.5455 21.8157V16.8837H68.2735ZM76.9812 16.7937C77.9052 16.7937 78.7332 16.9977 79.4652 17.4057C80.1972 17.8137 80.7672 18.3838 81.1752 19.1158C81.5952 19.8478 81.8052 20.6937 81.8052 21.6537C81.8052 22.6137 81.5952 23.4657 81.1752 24.2098C80.7672 24.9418 80.1972 25.5117 79.4652 25.9197C78.7332 26.3277 77.9052 26.5317 76.9812 26.5317C76.2732 26.5317 75.6252 26.3937 75.0372 26.1177C74.4492 25.8417 73.9632 25.4397 73.5792 24.9117V26.4237H71.9232V13.0677H73.6512V18.3237C74.0352 17.8197 74.5152 17.4417 75.0912 17.1897C75.6672 16.9257 76.2972 16.7937 76.9812 16.7937ZM76.8372 25.0197C77.4492 25.0197 77.9952 24.8818 78.4752 24.6058C78.9672 24.3177 79.3512 23.9218 79.6272 23.4178C79.9152 22.9018 80.0592 22.3137 80.0592 21.6537C80.0592 20.9937 79.9152 20.4118 79.6272 19.9078C79.3512 19.3918 78.9672 18.9958 78.4752 18.7198C77.9952 18.4438 77.4492 18.3057 76.8372 18.3057C76.2372 18.3057 75.6912 18.4438 75.1992 18.7198C74.7072 18.9958 74.3232 19.3918 74.0472 19.9078C73.7712 20.4118 73.6332 20.9937 73.6332 21.6537C73.6332 22.3137 73.7712 22.9018 74.0472 23.4178C74.3232 23.9218 74.7072 24.3177 75.1992 24.6058C75.6912 24.8818 76.2372 25.0197 76.8372 25.0197ZM89.6107 16.7937C90.5347 16.7937 91.3627 16.9977 92.0947 17.4057C92.8267 17.8137 93.3967 18.3838 93.8047 19.1158C94.2247 19.8478 94.4347 20.6937 94.4347 21.6537C94.4347 22.6137 94.2247 23.4657 93.8047 24.2098C93.3967 24.9418 92.8267 25.5117 92.0947 25.9197C91.3627 26.3277 90.5347 26.5317 89.6107 26.5317C88.9027 26.5317 88.2547 26.3937 87.6667 26.1177C87.0787 25.8417 86.5927 25.4397 86.2087 24.9117V26.4237H84.5527V13.0677H86.2807V18.3237C86.6647 17.8197 87.1447 17.4417 87.7207 17.1897C88.2967 16.9257 88.9267 16.7937 89.6107 16.7937ZM89.4667 25.0197C90.0787 25.0197 90.6247 24.8818 91.1047 24.6058C91.5967 24.3177 91.9807 23.9218 92.2567 23.4178C92.5447 22.9018 92.6887 22.3137 92.6887 21.6537C92.6887 20.9937 92.5447 20.4118 92.2567 19.9078C91.9807 19.3918 91.5967 18.9958 91.1047 18.7198C90.6247 18.4438 90.0787 18.3057 89.4667 18.3057C88.8667 18.3057 88.3207 18.4438 87.8287 18.7198C87.3367 18.9958 86.9527 19.3918 86.6767 19.9078C86.4007 20.4118 86.2627 20.9937 86.2627 21.6537C86.2627 22.3137 86.4007 22.9018 86.6767 23.4178C86.9527 23.9218 87.3367 24.3177 87.8287 24.6058C88.3207 24.8818 88.8667 25.0197 89.4667 25.0197ZM105.805 21.7077C105.805 21.8397 105.793 22.0137 105.769 22.2297H98.0282C98.1362 23.0697 98.5022 23.7477 99.1262 24.2637C99.7622 24.7677 100.549 25.0197 101.485 25.0197C102.625 25.0197 103.543 24.6357 104.239 23.8677L105.193 24.9838C104.761 25.4878 104.221 25.8717 103.573 26.1357C102.937 26.3997 102.223 26.5317 101.431 26.5317C100.423 26.5317 99.5282 26.3277 98.7482 25.9197C97.9682 25.4997 97.3622 24.9177 96.9302 24.1737C96.5102 23.4297 96.3002 22.5897 96.3002 21.6537C96.3002 20.7297 96.5042 19.8957 96.9122 19.1517C97.3322 18.4077 97.9022 17.8317 98.6222 17.4237C99.3542 17.0037 100.177 16.7937 101.089 16.7937C102.001 16.7937 102.811 17.0037 103.519 17.4237C104.239 17.8317 104.797 18.4077 105.193 19.1517C105.601 19.8957 105.805 20.7477 105.805 21.7077ZM101.089 18.2517C100.261 18.2517 99.5642 18.5037 99.0002 19.0077C98.4482 19.5117 98.1242 20.1718 98.0282 20.9878H104.149C104.053 20.1838 103.723 19.5298 103.159 19.0258C102.607 18.5098 101.917 18.2517 101.089 18.2517ZM110.22 18.4857C110.52 17.9337 110.964 17.5137 111.552 17.2257C112.14 16.9377 112.854 16.7937 113.694 16.7937V18.4677C113.598 18.4557 113.466 18.4497 113.298 18.4497C112.362 18.4497 111.624 18.7317 111.084 19.2957C110.556 19.8477 110.292 20.6398 110.292 21.6718V26.4237H108.564V16.8837H110.22V18.4857ZM125.096 13.0677V26.4237H123.44V24.9117C123.056 25.4397 122.57 25.8417 121.982 26.1177C121.394 26.3937 120.746 26.5317 120.038 26.5317C119.114 26.5317 118.286 26.3277 117.554 25.9197C116.822 25.5117 116.246 24.9418 115.826 24.2098C115.418 23.4657 115.214 22.6137 115.214 21.6537C115.214 20.6937 115.418 19.8478 115.826 19.1158C116.246 18.3838 116.822 17.8137 117.554 17.4057C118.286 16.9977 119.114 16.7937 120.038 16.7937C120.722 16.7937 121.352 16.9257 121.928 17.1897C122.504 17.4417 122.984 17.8197 123.368 18.3237V13.0677H125.096ZM120.182 25.0197C120.782 25.0197 121.328 24.8818 121.82 24.6058C122.312 24.3177 122.696 23.9218 122.972 23.4178C123.248 22.9018 123.386 22.3137 123.386 21.6537C123.386 20.9937 123.248 20.4118 122.972 19.9078C122.696 19.3918 122.312 18.9958 121.82 18.7198C121.328 18.4438 120.782 18.3057 120.182 18.3057C119.57 18.3057 119.018 18.4438 118.526 18.7198C118.046 18.9958 117.662 19.3918 117.374 19.9078C117.098 20.4118 116.96 20.9937 116.96 21.6537C116.96 22.3137 117.098 22.9018 117.374 23.4178C117.662 23.9218 118.046 24.3177 118.526 24.6058C119.018 24.8818 119.57 25.0197 120.182 25.0197ZM137.617 16.8837V26.4237H135.979V24.9838C135.631 25.4757 135.169 25.8597 134.593 26.1357C134.029 26.3997 133.411 26.5317 132.739 26.5317C131.467 26.5317 130.465 26.1838 129.733 25.4878C129.001 24.7797 128.635 23.7417 128.635 22.3737V16.8837H130.363V22.1757C130.363 23.0997 130.585 23.8017 131.029 24.2817C131.473 24.7497 132.109 24.9838 132.937 24.9838C133.849 24.9838 134.569 24.7077 135.097 24.1557C135.625 23.6037 135.889 22.8237 135.889 21.8157V16.8837H137.617ZM145.425 26.5317C144.453 26.5317 143.583 26.3217 142.815 25.9017C142.059 25.4817 141.465 24.9057 141.033 24.1737C140.601 23.4297 140.385 22.5897 140.385 21.6537C140.385 20.7177 140.601 19.8837 141.033 19.1517C141.465 18.4077 142.059 17.8317 142.815 17.4237C143.583 17.0037 144.453 16.7937 145.425 16.7937C146.289 16.7937 147.057 16.9677 147.729 17.3157C148.413 17.6637 148.941 18.1678 149.313 18.8278L147.999 19.6737C147.699 19.2177 147.327 18.8758 146.883 18.6477C146.439 18.4197 145.947 18.3057 145.407 18.3057C144.783 18.3057 144.219 18.4438 143.715 18.7198C143.223 18.9958 142.833 19.3918 142.545 19.9078C142.269 20.4118 142.131 20.9937 142.131 21.6537C142.131 22.3257 142.269 22.9198 142.545 23.4358C142.833 23.9397 143.223 24.3298 143.715 24.6058C144.219 24.8818 144.783 25.0197 145.407 25.0197C145.947 25.0197 146.439 24.9057 146.883 24.6777C147.327 24.4497 147.699 24.1077 147.999 23.6517L149.313 24.4797C148.941 25.1397 148.413 25.6497 147.729 26.0097C147.057 26.3577 146.289 26.5317 145.425 26.5317ZM155.495 21.9777L153.515 23.8138V26.4237H151.787V13.0677H153.515V21.6357L158.717 16.8837H160.805L156.791 20.8257L161.201 26.4237H159.077L155.495 21.9777Z" fill="#fcc74c"></path><path d="M35.4475 0H4.55247C2.03821 0 0 2.03821 0 4.55247V35.4475C0 37.9618 2.03821 40 4.55247 40H35.4475C37.9618 40 40 37.9618 40 35.4475V4.55247C40 2.03821 37.9618 0 35.4475 0Z" fill="#fcc74c"></path><path d="M27.6236 15.1559C27.6236 13.7885 27.0804 12.477 26.1135 11.5101C25.1466 10.5432 23.8351 10 22.4677 10C21.1003 10 19.7889 10.5432 18.8219 11.5101C17.855 12.477 17.3118 13.7885 17.3118 15.1559V19.689H7C7.0002 22.3697 8.04438 24.9451 9.91119 26.869C11.778 28.793 14.3207 29.9143 17.0002 29.9953C19.6798 30.0763 22.2856 29.1106 24.2652 27.3029C26.2448 25.4952 27.4426 22.9877 27.6047 20.3118H27.6236C28.9911 20.3118 30.3027 19.7686 31.2698 18.8017C32.2369 17.8349 32.7803 16.5234 32.7806 15.1559H27.6236Z" fill="white"></path></svg>