<?xml version="1.0" encoding="UTF-8"?><svg width="150" height="150" id="Layer_2" xmlns="http://www.w3.org/2000/svg" viewBox="0 0 897.23 981.73"><defs><style>.cls-1{letter-spacing:-.03em;}.cls-2,.cls-3,.cls-4,.cls-5,.cls-6,.cls-7,.cls-8,.cls-9,.cls-10,.cls-11{stroke-miterlimit:10;}.cls-2,.cls-3,.cls-4,.cls-5,.cls-9{fill:none;}.cls-2,.cls-3,.cls-4,.cls-7,.cls-9,.cls-10,.cls-11{stroke-width:6px;}.cls-2,.cls-3,.cls-5,.cls-6,.cls-7,.cls-8,.cls-10{stroke:#000;}.cls-2,.cls-4,.cls-5,.cls-9,.cls-11{stroke-linecap:round;}.cls-12{font-family:SourceSansRoman-Semibold, 'Source Sans Variable';font-size:700px;font-variation-settings:'wght' 600;font-weight:600;}.cls-12,.cls-4,.cls-9{isolation:isolate;}.cls-12,.cls-13{fill:#fff;}.cls-4{stroke:#fbf8ff;}.cls-4,.cls-9{opacity:.5;}.cls-5{stroke-width:5px;}.cls-6,.cls-7{fill:#dfdbdb;}.cls-6,.cls-8{stroke-width:8px;}.cls-14{letter-spacing:0em;}.cls-15{fill:#fcc74c;font-size:150px;}.cls-15,.cls-13{font-family:Montserrat-Medium, Montserrat;font-weight:500;}.cls-13{font-size:100px;}.cls-8{fill:#343335;}.cls-9,.cls-11{stroke:#fff;}.cls-10{fill:#848385;}.cls-11{fill:#f26184;}</style></defs><g id="Layer_2-2"><g><rect class="cls-11" x="220.5" y="80.68" width="568" height="568"/><line class="cls-5" x1="224" y1="654.68" x2="224" y2="632.68"/><path class="cls-9" d="M193,435.18c0-8.78,3.48-16.74,9.13-22.59"/><path class="cls-9" d="M212.85,405.24c3.89-1.64,8.16-2.55,12.65-2.55"/><text class="cls-15" transform="translate(68.94 942.28)"><tspan x="0" y="0" xml:space="preserve"> THE TIRES</tspan></text><text class="cls-13" transform="translate(144.41 794.56)"><tspan class="cls-1" x="0" y="0">Y</tspan><tspan class="cls-14" x="61.7" y="0">OU CHOOSE</tspan></text><text class="cls-12" transform="translate(391.79 581)"><tspan x="0" y="0">1</tspan></text><g><path class="cls-8" d="M225.5,213.68c-122.33,0-221.5,99.17-221.5,221.5s99.17,221.5,221.5,221.5,221.5-99.17,221.5-221.5-99.17-221.5-221.5-221.5Zm0,373c-83.67,0-151.5-67.83-151.5-151.5s67.83-151.5,151.5-151.5,151.5,67.83,151.5,151.5-67.83,151.5-151.5,151.5Z"/><path class="cls-7" d="M225.5,289.68c-80.36,0-145.5,65.14-145.5,145.5s65.14,145.5,145.5,145.5,145.5-65.14,145.5-145.5-65.14-145.5-145.5-145.5Zm0,270c-68.76,0-124.5-55.74-124.5-124.5s55.74-124.5,124.5-124.5,124.5,55.74,124.5,124.5-55.74,124.5-124.5,124.5Z"/><path class="cls-7" d="M225.5,289.68c-80.36,0-145.5,65.14-145.5,145.5s65.14,145.5,145.5,145.5,145.5-65.14,145.5-145.5-65.14-145.5-145.5-145.5Zm0,270c-68.76,0-124.5-55.74-124.5-124.5s55.74-124.5,124.5-124.5,124.5,55.74,124.5,124.5-55.74,124.5-124.5,124.5Z"/><line class="cls-2" x1="225" y1="213.68" x2="225" y2="239.68"/><line class="cls-5" x1="380.77" y1="278.62" x2="365.21" y2="294.18"/><line class="cls-5" x1="445" y1="434.68" x2="423" y2="434.68"/><line class="cls-5" x1="380.06" y1="590.45" x2="364.51" y2="574.9"/><line class="cls-5" x1="68.23" y1="589.75" x2="83.79" y2="574.19"/><line class="cls-5" x1="4" y1="433.68" x2="26" y2="433.68"/><line class="cls-5" x1="68.94" y1="277.91" x2="84.49" y2="293.47"/><circle class="cls-3" cx="224.5" cy="434.18" r="1.5"/><path class="cls-10" d="M342.28,469.17c-2.47,8.64-5.87,16.89-10.09,24.63-13.73-9.45-32.67-8.07-44.87,4.14-12.22,12.21-13.6,31.16-4.12,44.89-7.67,4.19-15.85,7.57-24.41,10.04-3.27-16.09-17.49-28.19-34.54-28.19s-31.11,11.97-34.48,27.92c-8.42-2.51-16.46-5.9-24.01-10.07,8.47-13.6,6.8-31.72-5.02-43.53-11.77-11.78-29.8-13.48-43.38-5.11-4.09-7.49-7.42-15.46-9.87-23.8,15.24-3.89,26.51-17.71,26.51-34.16s-11.41-30.44-26.79-34.23c2.39-8.34,5.64-16.32,9.66-23.83,13.51,7.98,31.21,6.16,42.81-5.45,11.81-11.8,13.49-29.91,5.03-43.51,7.46-4.21,15.41-7.67,23.75-10.26,3.71,15.51,17.65,27.03,34.29,27.03s31.24-12.07,34.52-28.13h.01c8.53,2.35,16.68,5.6,24.36,9.64-8.92,13.67-7.39,32.17,4.62,44.17,12.25,12.25,31.27,13.6,45.01,4.04,4.33,7.66,7.85,15.82,10.45,24.39-16.35,3.06-28.72,17.4-28.72,34.64s12.65,31.91,29.28,34.74h0Z"/><path class="cls-6" d="M225.5,367.68c-37.28,0-67.5,30.22-67.5,67.5s30.22,67.5,67.5,67.5,67.5-30.22,67.5-67.5-30.22-67.5-67.5-67.5Zm0,113.67c-25.5,0-46.17-20.67-46.17-46.17s20.67-46.17,46.17-46.17,46.17,20.67,46.17,46.17-20.67,46.17-46.17,46.17h0Z"/><path class="cls-4" d="M166.15,235.76c6.11-1.92,12.35-3.56,18.7-4.89"/><path class="cls-4" d="M107,265.68c11.25-8.71,23.82-16.02,37.41-21.64"/></g></g></g></svg>