<?xml version="1.0" encoding="UTF-8"?><svg width="150" height="150" id="Layer_2" xmlns="http://www.w3.org/2000/svg" viewBox="0 0 876.23 972.28"><defs><style>.cls-1,.cls-2,.cls-3{fill:#fff;}.cls-4{fill:#ea7221;}.cls-5{fill:#ed9700;}.cls-6,.cls-7{fill:#e59200;}.cls-8{fill:#0796d9;}.cls-9{fill:#cb490f;}.cls-10{stroke-width:30px;}.cls-10,.cls-11,.cls-12,.cls-13{fill:none;}.cls-10,.cls-11,.cls-12,.cls-7,.cls-14{stroke:#231f20;}.cls-10,.cls-13,.cls-7{stroke-linejoin:round;}.cls-10,.cls-13,.cls-7,.cls-15{stroke-linecap:round;}.cls-2{letter-spacing:-.01em;}.cls-16{fill:#e6e6e6;}.cls-11{stroke-width:20px;}.cls-17{font-size:150px;}.cls-17,.cls-18,.cls-14{fill:#fcc74c;}.cls-17,.cls-19{font-family:Montserrat-Medium, Montserrat;font-weight:500;}.cls-19{font-size:100px;}.cls-12,.cls-13,.cls-14{stroke-width:14px;}.cls-20{letter-spacing:0em;}.cls-13{stroke:rgba(255,255,255,.51);}.cls-3{font-family:SourceSansRoman-Semibold, 'Source Sans Variable';font-size:700px;font-variation-settings:'wght' 600;font-weight:600;}.cls-7{stroke-width:.25px;}.cls-21{fill:#2d2a26;}.cls-15{fill:#86f2ce;stroke:#fff;stroke-miterlimit:10;stroke-width:6px;}</style></defs><g id="Isolation_Mode"><g><rect class="cls-15" x="228" y="67.37" width="568" height="568"/><text class="cls-19" transform="translate(329.48 785.11)"><tspan class="cls-16" x="0" y="0"> </tspan><tspan class="cls-2" x="26.9" y="0">W</tspan><tspan class="cls-1" x="138" y="0">E DO</tspan></text><text class="cls-3" transform="translate(409.78 581)"><tspan x="0" y="0">3</tspan></text><g><g><g><ellipse class="cls-11" cx="238.5" cy="531.94" rx="238.5" ry="64.37"/><path class="cls-11" d="M323.01,596.64c0,29.38-54.35,53.19-121.4,53.19s-135.55-27.44-121.4-53.19c13.96-25.41,54.35-53.19,121.4-53.19s121.4,23.81,121.4,53.19Z"/></g><g><ellipse class="cls-8" cx="238.5" cy="531.94" rx="238.5" ry="64.37"/><path class="cls-8" d="M323.01,596.64c0,29.38-54.35,53.19-121.4,53.19s-135.55-27.44-121.4-53.19c13.96-25.41,54.35-53.19,121.4-53.19s121.4,23.81,121.4,53.19Z"/></g></g><g><g><g><path class="cls-10" d="M247.55,310.18c.03-17.8,6.22-33.49,17.75-50.21,11.53-16.73,42.6-36.52,42.6-36.52,0,0,13.31-7,21.58-7.54-.44-.02-.87-.02-1.29-.03,1.01-.04,2.01-.07,3.03-.07,48.76,.08,88.23,37.82,88.16,84.28-.02,13.95-21.27,58.9-28.3,66.4-2.12,2.26-2.76,5.4-1.81,8.3,1.5,4.58,15.32,19.16,16.63,26.75,5.89,34.1,.81,55.97-19.71,90.05-4.36,7.24-10.9,15-17.97,21.72-7.03,6.68-26.84,16.71-36.44,20.13-3.11,1.11-6.25,2.15-9.41,3.13-8.62,2.67-17.44,4.89-26.41,6.6,7.41-1.71,14.76-3.78,22.01-6.19-11.53,3.39-23.45,5.97-35.49,7.66-13.3,1.87-26.81,2.68-40.14,2.41-13.56-.28-27.02-1.69-40.01-4.18-13.33-2.55-26.28-6.28-38.47-11.08-3.31-1.3-6.72-2.84-10.12-4.57-8.3-4.23-17.22-11.79-27.4-19.43-19.7-14.78-28.14-30.56-39.05-49.2-10.45-17.85-23.28-40-33.98-70.5-4.98-14.19-7.09-32.7-6.17-50.08,.15-2.79,.29-5.43,.4-8.03,.06-1.32,.46-2.58,.84-3.8,.16-.5,.32-1.01,.45-1.51,1.25-4.73,5.06-8.66,9.48-11.55,0-.01,0-.01,.01-.01,2.46-1.38,5.18-2.42,7.9-3.11,.08-.02,.15-.03,.23-.05,3.94-.95,8.19-.92,12.31,.38,7.91,2.5,16.83,25.29,22.15,31.4,12.61,14.49,29.7,23.25,48.31,29.59,20.86,7.11,42.02,13.86,63.24,15.17,2.35,.14,4.71,.22,7.07,.23,4.84,0,9.69-.3,14.54-.98,.68-.09,1.36-.2,2.04-.31-.13,.08-.21,.17-.21,.28,0,.51,10.6-1.75,14.34-2.83,3.6-1.05,7.25-2.3,11.15-3.83,2.31-.91,3.95-2.76,4.49-5.09,.53-2.29-.09-4.63-1.72-6.41-6.86-7.52-9.85-17.21-13.55-26.47-3.83-9.59-3.06-20.58-3.04-30.94Z"/><path class="cls-10" d="M258.35,379.15c-3.65,1.43-7.36,2.73-11.15,3.83-3.7,1.07-7.4,1.9-11.11,2.49,.47-.28,1.7-.4,2.84-.74,3.59-1.05,9.8-2.52,13.69-4.06,2.34-.92,5.68-3.06,6.24-5.44,.55-2.36-.08-4.76-1.74-6.6-13.94-15.44-21.61-35.22-21.58-55.7,.06-37.13,26.76-76.26,62.11-91.03,9.65-4.03,19.5-6.06,29.3-6.05,.4,0,.8,0,1.21,.01-.13,0-.25,0-.37,.01t0,0c-8.97,.41-12.63,2.1-20.9,5.52-12.72,5.25-24.82,16.56-34.49,26.88-17.24,18.39-27.86,38.32-27.9,61.88-.03,21.16,3.13,42.56,16.65,57.37,3.45,3.78,2.07,9.69-2.8,11.6Z"/><path class="cls-10" d="M247.55,310.18c-.02,10.36-.79,21.34,3.04,30.94,3.7,9.27,6.69,18.95,13.55,26.47,1.63,1.78,2.25,4.12,1.72,6.41-.54,2.33-2.18,4.18-4.49,5.09-3.9,1.53-7.55,2.78-11.15,3.83-3.74,1.08-14.34,3.34-14.34,2.83,0-.11,.08-.2,.21-.28,3.71-.6,7.41-1.42,11.11-2.49,3.79-1.1,7.5-2.4,11.15-3.83,4.87-1.91,6.25-7.82,2.8-11.6-13.52-14.81-16.68-36.2-16.65-57.37,.04-23.56,10.66-43.49,27.9-61.88,9.67-10.32,21.77-21.63,34.49-26.88,8.27-3.42,11.93-5.11,20.9-5.52t0,0c.13,0,.25,0,.37-.01h.03c.42,0,.86,.01,1.29,.03-8.27,.54-21.58,7.54-21.58,7.54,0,0-31.07,19.79-42.6,36.52-11.53,16.72-17.72,32.41-17.75,50.21Z"/><path class="cls-10" d="M202.32,542.89c12.99,2.49,26.45,3.9,40.01,4.18,13.34,.27,26.85-.54,40.14-2.41,12.04-1.7,23.96-4.27,35.49-7.66-7.25,2.41-14.6,4.48-22.01,6.19-43.4,8.37-89.92,5.41-131.07-10.76-3.45-1.36-6.82-2.9-10.11-4.57-.36-.18-.72-.37-1.07-.56l.03-.06c3.4,1.73,6.81,3.27,10.12,4.57,12.19,4.79,25.14,8.52,38.47,11.08Z"/><path class="cls-10" d="M295.96,543.19c-11.95,2.78-24.07,4.64-36.2,5.6-.08,0-.16,.01-.24,.02-1.55,.12-3.11,.23-4.66,.32-.24,.01-.48,.02-.72,.05-1.13,.13-2.26,.25-3.39,.18-.34-.02-.67,0-1,.02-1.47,.06-2.94,.1-4.41,.13-.2,0-.4,0-.59,.01-1.47,.02-2.95,.04-4.42,.04h-.3c-.08,0-.17,0-.25,0-.57,0-1.14,0-1.72,0-.29-.01-.59-.01-.88-.01-27.8-.37-55.15-5.53-80.15-15.46-3.3-1.31-6.69-2.86-10.08-4.6-8.26-4.25-16.84-9.83-27-17.52-19.63-14.89-34.46-31.24-45.34-50.01-12.28-21.18-25.06-49.21-33.38-73.15-4.95-14.24-4.99-35.89-.13-57.91,.41-1.82,.84-3.62,1.28-5.33,2.53-9.69,12.47-16.67,23.07-16.12,0,.04,0,.03,.01,.07-2.37,.9-4.85,2.13-7.17,3.64,0,0-.01,0-.01,.01-4.57,2.56-8.27,6.31-9.56,11.22-.45,1.71-2.08,7.27-2.03,9.13,.63,19.56-1.24,40.03,4.51,56.45,8.14,23.21,18.43,49.39,31,70.85,11.57,19.77,26.97,35.76,45.48,49.65,8.24,6.18,16.82,12.06,26.01,16.84,.35,.19,.71,.38,1.07,.56,3.29,1.67,6.66,3.21,10.11,4.57,41.15,16.17,87.66,19.13,131.07,10.76Z"/><path class="cls-10" d="M126.33,507.81c10.18,7.64,19.1,15.2,27.4,19.43l-.03,.06c-9.18-4.78-17.77-10.65-26.01-16.84-18.51-13.89-33.9-29.89-45.48-49.65-12.57-21.47-22.86-47.65-31-70.85-5.76-16.41-3.88-36.89-4.51-56.45-.06-1.86,1.58-7.42,2.03-9.13,1.3-4.92,4.99-8.66,9.56-11.22-4.42,2.89-8.23,6.82-9.48,11.55-.13,.5-.29,1.01-.45,1.51-.38,1.22-.77,2.48-.84,3.8-.11,2.6-.26,5.24-.4,8.03-.92,17.38,1.19,35.89,6.17,50.08,10.7,30.5,23.53,52.65,33.98,70.5,10.92,18.64,19.36,34.42,39.05,49.2Z"/></g><g><path class="cls-18" d="M247.55,310.18c.03-17.8,6.22-33.49,17.75-50.21,11.53-16.73,42.6-36.52,42.6-36.52,0,0,13.31-7,21.58-7.54-.44-.02-.87-.02-1.29-.03,1.01-.04,2.01-.07,3.03-.07,48.76,.08,88.23,37.82,88.16,84.28-.02,13.95-21.27,58.9-28.3,66.4-2.12,2.26-2.76,5.4-1.81,8.3,1.5,4.58,15.32,19.16,16.63,26.75,5.89,34.1,.81,55.97-19.71,90.05-4.36,7.24-10.9,15-17.97,21.72-7.03,6.68-26.84,16.71-36.44,20.13-3.11,1.11-6.25,2.15-9.41,3.13-8.62,2.67-17.44,4.89-26.41,6.6,7.41-1.71,14.76-3.78,22.01-6.19-11.53,3.39-23.45,5.97-35.49,7.66-13.3,1.87-26.81,2.68-40.14,2.41-13.56-.28-27.02-1.69-40.01-4.18-13.33-2.55-26.28-6.28-38.47-11.08-3.31-1.3-6.72-2.84-10.12-4.57-8.3-4.23-17.22-11.79-27.4-19.43-19.7-14.78-28.14-30.56-39.05-49.2-10.45-17.85-23.28-40-33.98-70.5-4.98-14.19-7.09-32.7-6.17-50.08,.15-2.79,.29-5.43,.4-8.03,.06-1.32,.46-2.58,.84-3.8,.16-.5,.32-1.01,.45-1.51,1.25-4.73,5.06-8.66,9.48-11.55,0-.01,0-.01,.01-.01,2.46-1.38,5.18-2.42,7.9-3.11,.08-.02,.15-.03,.23-.05,3.94-.95,8.19-.92,12.31,.38,7.91,2.5,16.83,25.29,22.15,31.4,12.61,14.49,29.7,23.25,48.31,29.59,20.86,7.11,42.02,13.86,63.24,15.17,2.35,.14,4.71,.22,7.07,.23,4.84,0,9.69-.3,14.54-.98,.68-.09,1.36-.2,2.04-.31-.13,.08-.21,.17-.21,.28,0,.51,10.6-1.75,14.34-2.83,3.6-1.05,7.25-2.3,11.15-3.83,2.31-.91,3.95-2.76,4.49-5.09,.53-2.29-.09-4.63-1.72-6.41-6.86-7.52-9.85-17.21-13.55-26.47-3.83-9.59-3.06-20.58-3.04-30.94Z"/><path class="cls-6" d="M258.35,379.15c-3.65,1.43-7.36,2.73-11.15,3.83-3.7,1.07-7.4,1.9-11.11,2.49,.47-.28,1.7-.4,2.84-.74,3.59-1.05,9.8-2.52,13.69-4.06,2.34-.92,5.68-3.06,6.24-5.44,.55-2.36-.08-4.76-1.74-6.6-13.94-15.44-21.61-35.22-21.58-55.7,.06-37.13,26.76-76.26,62.11-91.03,9.65-4.03,19.5-6.06,29.3-6.05,.4,0,.8,0,1.21,.01-.13,0-.25,0-.37,.01t0,0c-8.97,.41-12.63,2.1-20.9,5.52-12.72,5.25-24.82,16.56-34.49,26.88-17.24,18.39-27.86,38.32-27.9,61.88-.03,21.16,3.13,42.56,16.65,57.37,3.45,3.78,2.07,9.69-2.8,11.6Z"/><path class="cls-6" d="M247.55,310.18c-.02,10.36-.79,21.34,3.04,30.94,3.7,9.27,6.69,18.95,13.55,26.47,1.63,1.78,2.25,4.12,1.72,6.41-.54,2.33-2.18,4.18-4.49,5.09-3.9,1.53-7.55,2.78-11.15,3.83-3.74,1.08-14.34,3.34-14.34,2.83,0-.11,.08-.2,.21-.28,3.71-.6,7.41-1.42,11.11-2.49,3.79-1.1,7.5-2.4,11.15-3.83,4.87-1.91,6.25-7.82,2.8-11.6-13.52-14.81-16.68-36.2-16.65-57.37,.04-23.56,10.66-43.49,27.9-61.88,9.67-10.32,21.77-21.63,34.49-26.88,8.27-3.42,11.93-5.11,20.9-5.52t0,0c.13,0,.25,0,.37-.01h.03c.42,0,.86,.01,1.29,.03-8.27,.54-21.58,7.54-21.58,7.54,0,0-31.07,19.79-42.6,36.52-11.53,16.72-17.72,32.41-17.75,50.21Z"/><path class="cls-5" d="M202.32,542.89c12.99,2.49,26.45,3.9,40.01,4.18,13.34,.27,26.85-.54,40.14-2.41,12.04-1.7,23.96-4.27,35.49-7.66-7.25,2.41-14.6,4.48-22.01,6.19-43.4,8.37-89.92,5.41-131.07-10.76-3.45-1.36-6.82-2.9-10.11-4.57-.36-.18-.72-.37-1.07-.56l.03-.06c3.4,1.73,6.81,3.27,10.12,4.57,12.19,4.79,25.14,8.52,38.47,11.08Z"/><path class="cls-5" d="M295.96,543.19c-11.95,2.78-24.07,4.64-36.2,5.6-.08,0-.16,.01-.24,.02-1.55,.12-3.11,.23-4.66,.32-.24,.01-.48,.02-.72,.05-1.13,.13-2.26,.25-3.39,.18-.34-.02-.67,0-1,.02-1.47,.06-2.94,.1-4.41,.13-.2,0-.4,0-.59,.01-1.47,.02-2.95,.04-4.42,.04h-.3c-.08,0-.17,0-.25,0-.57,0-1.14,0-1.72,0-.29-.01-.59-.01-.88-.01-27.8-.37-55.15-5.53-80.15-15.46-3.3-1.31-6.69-2.86-10.08-4.6-8.26-4.25-16.84-9.83-27-17.52-19.63-14.89-34.46-31.24-45.34-50.01-12.28-21.18-25.06-49.21-33.38-73.15-4.95-14.24-4.99-35.89-.13-57.91,.41-1.82,.84-3.62,1.28-5.33,2.53-9.69,12.47-16.67,23.07-16.12,0,.04,0,.03,.01,.07-2.37,.9-4.85,2.13-7.17,3.64,0,0-.01,0-.01,.01-4.57,2.56-8.27,6.31-9.56,11.22-.45,1.71-2.08,7.27-2.03,9.13,.63,19.56-1.24,40.03,4.51,56.45,8.14,23.21,18.43,49.39,31,70.85,11.57,19.77,26.97,35.76,45.48,49.65,8.24,6.18,16.82,12.06,26.01,16.84,.35,.19,.71,.38,1.07,.56,3.29,1.67,6.66,3.21,10.11,4.57,41.15,16.17,87.66,19.13,131.07,10.76Z"/><path class="cls-5" d="M126.33,507.81c10.18,7.64,19.1,15.2,27.4,19.43l-.03,.06c-9.18-4.78-17.77-10.65-26.01-16.84-18.51-13.89-33.9-29.89-45.48-49.65-12.57-21.47-22.86-47.65-31-70.85-5.76-16.41-3.88-36.89-4.51-56.45-.06-1.86,1.58-7.42,2.03-9.13,1.3-4.92,4.99-8.66,9.56-11.22-4.42,2.89-8.23,6.82-9.48,11.55-.13,.5-.29,1.01-.45,1.51-.38,1.22-.77,2.48-.84,3.8-.11,2.6-.26,5.24-.4,8.03-.92,17.38,1.19,35.89,6.17,50.08,10.7,30.5,23.53,52.65,33.98,70.5,10.92,18.64,19.36,34.42,39.05,49.2Z"/></g></g><g><g><path class="cls-12" d="M425.7,301.86c-.35-.18-.69-.37-1.02-.54-1.99-1.07-4.12-1.58-6.25-1.53-.01,0-.03,0-.04,0,2.05,0,4.1,.46,6.02,1.43,.41,.21,.84,.42,1.29,.64Z"/><path class="cls-12" d="M463.11,319.71c-1.09,2.14-2.85,3.84-4.78,5.35-4.05,3.16-8.24,6.14-12.55,8.94-12.65,8.21-21.94,8.15-35.38,2.54-6.42-2.68-21.67-8.11-23.58-16,0,.03-.02,.07-.03,.1-.05,.24-.07,.49-.06,.74,.28,6.68,12.76,12.27,17.59,14.77,12.98,6.74,27.09,10.64,40.24,2.2,4.7-3.02,8.77-6.91,12.8-10.77,2.38-2.28,4.74-4.67,5.75-7.88Z"/><path class="cls-12" d="M424.77,341.25c11.88,2.43,25.22-10.48,33.66-17,1.42-1.1,2.89-2.25,3.72-3.84,3.45-6.55-5.5-5.99-9.15-6.68-10.09-1.92-18.28-7.34-27.3-11.86-.44-.22-.87-.44-1.29-.64-1.92-.97-3.97-1.44-6.02-1.43-.06,0-.12,0-.18,0-2.03,.04-4.05,.55-5.94,1.54-.42,.22-.85,.45-1.3,.69-9.02,4.79-23.15,12.83-24.18,17.24-.05,.22-.07,.45-.06,.69,0,.19,.04,.39,.09,.6,1.65,6.78,25.33,18.12,37.95,20.7Z"/></g><g><path class="cls-9" d="M425.7,301.86c-.35-.18-.69-.37-1.02-.54-1.99-1.07-4.12-1.58-6.25-1.53-.01,0-.03,0-.04,0,2.05,0,4.1,.46,6.02,1.43,.41,.21,.84,.42,1.29,.64Z"/><path class="cls-9" d="M463.11,319.71c-1.09,2.14-2.85,3.84-4.78,5.35-4.05,3.16-8.24,6.14-12.55,8.94-12.65,8.21-21.94,8.15-35.38,2.54-6.42-2.68-21.67-8.11-23.58-16,0,.03-.02,.07-.03,.1-.05,.24-.07,.49-.06,.74,.28,6.68,12.76,12.27,17.59,14.77,12.98,6.74,27.09,10.64,40.24,2.2,4.7-3.02,8.77-6.91,12.8-10.77,2.38-2.28,4.74-4.67,5.75-7.88Z"/><path class="cls-4" d="M424.77,341.25c11.88,2.43,25.22-10.48,33.66-17,1.42-1.1,2.89-2.25,3.72-3.84,3.45-6.55-5.5-5.99-9.15-6.68-10.09-1.92-18.28-7.34-27.3-11.86-.44-.22-.87-.44-1.29-.64-1.92-.97-3.97-1.44-6.02-1.43-.06,0-.12,0-.18,0-2.03,.04-4.05,.55-5.94,1.54-.42,.22-.85,.45-1.3,.69-9.02,4.79-23.15,12.83-24.18,17.24-.05,.22-.07,.45-.06,.69,0,.19,.04,.39,.09,.6,1.65,6.78,25.33,18.12,37.95,20.7Z"/></g></g><line class="cls-13" x1="418" y1="307.37" x2="429" y2="312.37"/><line class="cls-13" x1="443" y1="319.37" x2="448" y2="321.37"/><path class="cls-7" d="M386.45,331.02c-1.25,.35-2.2,1.29-2.66,3.08-1.42,5.43,5.28,9.94,4.32,14.91-.56,2.89-5.2,6.52-7.02,8.79-3.16,3.93-6.23,7.93-9.19,12.01-.61,.84-1.24,1.73-1.38,2.76-.17,1.22,.37,2.42,.99,3.49,3.35,5.78,9.01,9.51,13.44,14.35,5.37,5.86,7.39,14,9.71,21.38,2.02,6.42,4.05,12.85,6.07,19.27,.71,2.24,1.3,7.58,2.85,9.24,.84,.91,3.39,3.52,3.91,.18l2.27-14.58c.01-.08,.02-.16,0-.24-.18-2.12-3.31-20.48-4.24-25.85-.15-.87-.46-1.7-.91-2.46-4.1-6.91-8.32-13.76-12.26-20.77-1.88-3.35-2.13-3.28-1.34-6.5,1.75-7.11,8.31-15.18,11.85-21.64,3.44-6.29,2.08-8.65-3.26-12.17-3.38-2.22-8.78-6.49-13.16-5.26Z"/><circle cx="367.49" cy="276.45" r="19.27"/><path class="cls-21" d="M386.77,274.68c0,10.03-8.45,18.09-18.62,17.46-8.71-.54-15.8-7.63-16.35-16.35-.63-10.17,7.43-18.62,17.46-18.62,4.86,0,9.25,1.98,12.42,5.18,.65,.66,1.26,1.37,1.8,2.13,1.8,2.5,2.95,5.5,3.21,8.75,.01,.09,.02,.18,.03,.27,.03,.39,.04,.78,.04,1.17Z"/><ellipse class="cls-1" cx="372.57" cy="276.71" rx="7.61" ry="8.88"/><path class="cls-1" d="M386.7,273.24c-.37,.11-.76,.17-1.17,.17-2.4,0-4.35-2.13-4.35-4.74,0-1.81,.93-3.38,2.3-4.18,1.8,2.5,2.95,5.5,3.21,8.75Z"/><path class="cls-14" d="M231.05,446.56c-38.02,2.24-94.02-10.66-108.16-51.45-3.97-11.45-2.98-23.6-3.06-35.48-.02-3.26,1.42-6.42,4.07-8.33,8.8-6.34,20.43,5.38,27.69,9.09s14.77,6.85,22.49,9.42c22.59,7.51,46.14,8.34,69.67,10.08"/><path class="cls-5" d="M124.28,379.28s0,0,0,0c-.02,.2,8.99,7.37,9.57,7.89,3.93,3.47,7.97,6.82,12.11,10.04,11.88,9.25,24.97,17.7,38.35,25.02,7.03,3.85,14.21,7.43,21.49,10.79,3.53,1.63,7.08,3.2,10.66,4.72,2.8,1.19,11.15,1.69,14.03,3.59,.33,.22,.34,.7,.02,.93-6.55,4.61-25.74,1-32.66,.2-10.65-1.23-21.09-4.23-30.88-8.58-11.01-4.89-22.2-11.4-29.79-21.01-.94-1.19-1.59-2.59-2.6-3.71-3.93-4.37-6.22-10.53-8.32-15.69-1.61-3.96-3.02-10-1.97-14.17Z"/><ellipse class="cls-5" cx="351.77" cy="308.41" rx="14.71" ry="8.62"/></g></g><text class="cls-17" transform="translate(136.28 932.83)"><tspan x="0" y="0">THE RE</tspan><tspan class="cls-20" x="560.25" y="0">S</tspan><tspan x="651.89" y="0">T</tspan></text></g></g></svg>