<?xml version="1.0" encoding="UTF-8"?><svg width="110" height="100" id="Layer_2" xmlns="http://www.w3.org/2000/svg" viewBox="0 0 843 782.6"><defs><style>.cls-1,.cls-2{fill:#fff;}.cls-3{fill:#ea7221;}.cls-4{fill:#ed9700;}.cls-5,.cls-6{fill:#e59200;}.cls-7{fill:#0796d9;}.cls-8{fill:#cb490f;}.cls-9{stroke-width:30px;}.cls-9,.cls-10,.cls-11,.cls-12{fill:none;}.cls-9,.cls-10,.cls-11,.cls-6,.cls-13{stroke:#231f20;}.cls-9,.cls-12,.cls-6{stroke-linejoin:round;}.cls-9,.cls-12,.cls-6,.cls-14{stroke-linecap:round;}.cls-10{stroke-width:20px;}.cls-15,.cls-13{fill:#fcc74c;}.cls-11,.cls-12,.cls-13{stroke-width:14px;}.cls-12{stroke:rgba(255,255,255,.51);}.cls-2{font-family:SourceSansRoman-Semibold, 'Source Sans Variable';font-size:700px;font-variation-settings:'wght' 600;font-weight:600;}.cls-6{stroke-width:.25px;}.cls-16{fill:#2d2a26;}.cls-14{fill:#86f2ce;stroke:#fff;stroke-miterlimit:10;stroke-width:6px;}</style></defs><g id="Layer_1-2"><g><rect class="cls-14" x="272" y="95.38" width="568" height="568"/><text class="cls-2" transform="translate(407.09 581)"><tspan x="0" y="0">3</tspan></text><g><g><g><ellipse class="cls-10" cx="238.5" cy="610.95" rx="238.5" ry="64.37"/><path class="cls-10" d="M323.01,675.65c0,29.38-54.35,53.19-121.4,53.19s-135.55-27.44-121.4-53.19c13.96-25.41,54.35-53.19,121.4-53.19s121.4,23.81,121.4,53.19Z"/></g><g><ellipse class="cls-7" cx="238.5" cy="610.95" rx="238.5" ry="64.37"/><path class="cls-7" d="M323.01,675.65c0,29.38-54.35,53.19-121.4,53.19s-135.55-27.44-121.4-53.19c13.96-25.41,54.35-53.19,121.4-53.19s121.4,23.81,121.4,53.19Z"/></g></g><g><g><g><path class="cls-9" d="M419.37,379.11c-.02,13.94-21.27,58.9-28.29,66.4-2.12,2.26-2.76,5.4-1.81,8.3,1.5,4.58,15.31,19.17,16.62,26.76,5.9,34.1,.81,55.96-19.71,90.05-4.36,7.24-10.89,15-17.97,21.71-7.03,6.68-26.84,16.71-36.44,20.13-3.11,1.11-6.24,2.15-9.41,3.13h0c-8.57,2.66-17.34,4.86-26.24,6.57,7.36-1.71,14.65-3.77,21.85-6.16-11.53,3.39-23.45,5.97-35.49,7.66-13.3,1.88-26.81,2.69-40.15,2.41-13.56-.28-27.02-1.68-40.01-4.18-13.33-2.56-26.28-6.29-38.47-11.08-3.31-1.3-6.72-2.84-10.12-4.57-8.29-4.23-17.21-11.79-27.4-19.43-19.7-14.78-28.14-30.56-39.05-49.2-10.45-17.85-23.28-40-33.98-70.5-4.98-14.19-7.09-32.7-6.17-50.08,.15-2.79,.29-5.43,.41-8.03,.06-1.32,.45-2.58,.84-3.79,.16-.5,.32-1.01,.45-1.52,1.24-4.71,5.03-8.63,9.43-11.52,2.47-1.4,5.21-2.45,7.95-3.14,.08-.01,.16-.03,.23-.05,3.94-.95,8.18-.92,12.31,.38,7.91,2.5,16.83,25.28,22.15,31.4,12.61,14.5,29.71,23.25,48.31,29.59,20.86,7.1,42.02,13.86,63.23,15.17,7.2,.44,14.41,.27,21.61-.74h0c.69-.1,1.37-.2,2.06-.32-.15,.08-.23,.17-.23,.29,0,.51,10.6-1.75,14.34-2.84,3.6-1.05,7.25-2.3,11.15-3.83,2.31-.91,3.94-2.76,4.49-5.09,.54-2.3-.09-4.63-1.71-6.41-6.86-7.52-9.86-17.21-13.55-26.47-3.83-9.59-3.06-20.58-3.05-30.94,.03-17.8,6.22-33.48,17.75-50.21,11.53-16.73,42.61-36.51,42.61-36.51,0,0,13.31-7,21.58-7.54-.42-.01-.84-.02-1.24-.03,.99-.04,1.98-.06,2.97-.06,48.77,.08,88.23,37.81,88.16,84.28Z"/><path class="cls-9" d="M328.24,294.89c.4,.01,.81,.02,1.24,.03-8.27,.54-21.58,7.54-21.58,7.54,0,0-31.07,19.79-42.61,36.51-11.53,16.73-17.72,32.41-17.75,50.21-.02,10.36-.78,21.34,3.05,30.94,3.7,9.27,6.69,18.95,13.55,26.47,1.63,1.78,2.25,4.12,1.71,6.41-.54,2.33-2.18,4.18-4.49,5.09-3.9,1.53-7.55,2.78-11.15,3.83-3.74,1.09-14.34,3.34-14.34,2.84,0-.12,.08-.21,.23-.29h0c3.7-.6,7.39-1.42,11.08-2.49,3.8-1.1,7.5-2.4,11.16-3.83,4.86-1.91,6.25-7.81,2.79-11.6-13.51-14.81-16.68-36.2-16.64-57.37,.04-23.56,10.66-43.49,27.89-61.88,9.67-10.31,21.77-21.63,34.49-26.88,4.14-1.71,7.12-2.98,10.19-3.89,3.07-.9,6.23-1.43,10.71-1.64,.15,0,.31-.01,.46-.02Z"/><path class="cls-9" d="M328.24,294.89c-.15,0-.31,.01-.46,.02-4.48,.21-7.64,.74-10.71,1.64-3.07,.9-6.05,2.18-10.19,3.89-12.72,5.25-24.82,16.57-34.49,26.88-17.24,18.39-27.85,38.32-27.89,61.88-.03,21.16,3.13,42.56,16.64,57.37,3.45,3.78,2.07,9.69-2.79,11.6-3.65,1.43-7.36,2.73-11.16,3.83-3.69,1.07-7.38,1.89-11.08,2.49,.49-.28,1.69-.4,2.81-.73,3.6-1.06,9.8-2.52,13.7-4.06,2.33-.93,5.67-3.07,6.23-5.44,.55-2.36-.08-4.76-1.73-6.6-13.95-15.44-21.61-35.22-21.58-55.7,.06-37.13,26.76-76.26,62.11-91.03,9.64-4.03,19.5-6.06,29.29-6.05,.43,0,.86,0,1.3,.01Z"/><path class="cls-9" d="M282.48,623.67c12.04-1.7,23.96-4.27,35.49-7.66-7.2,2.39-14.49,4.45-21.85,6.16-43.45,8.41-90.04,5.46-131.24-10.72-3.45-1.36-6.82-2.9-10.11-4.57-.36-.18-.72-.37-1.08-.56l.03-.06c3.4,1.73,6.81,3.27,10.12,4.57,12.2,4.79,25.14,8.52,38.47,11.08,12.99,2.49,26.45,3.9,40.01,4.18,13.34,.28,26.85-.53,40.15-2.41Z"/><path class="cls-9" d="M296.12,622.17c-12.01,2.79-24.19,4.67-36.37,5.63-.08,0-.16,.01-.24,.02-1.55,.12-3.1,.23-4.66,.32-.25,0-.49,.02-.73,.05-1.12,.13-2.25,.24-3.39,.18-.33-.02-.67,0-1,.02-1.47,.05-2.94,.1-4.41,.12-.2,0-.39,0-.59,.01-1.47,.03-2.94,.04-4.42,.04-.1,0-.2,0-.3,0-.08,0-.16,0-.24,0-.57,0-1.15,0-1.72,0-.29,0-.58,0-.88-.01-27.8-.37-55.15-5.53-80.15-15.45-3.3-1.31-6.69-2.86-10.08-4.6-8.27-4.25-16.85-9.82-27-17.52-19.63-14.89-34.46-31.24-45.33-50.01-12.28-21.18-25.07-49.21-33.38-73.15-4.94-14.24-4.99-35.88-.13-57.91,.4-1.82,.83-3.62,1.28-5.33,2.53-9.69,12.48-16.66,23.08-16.12,0,.04,0,.03,0,.07-2.39,.91-4.89,2.15-7.22,3.68-4.55,2.56-8.23,6.31-9.52,11.2-.45,1.71-2.09,7.27-2.03,9.13,.63,19.56-1.25,40.03,4.51,56.45,8.14,23.2,18.43,49.38,31,70.85,11.57,19.76,26.97,35.76,45.47,49.65,8.24,6.18,16.82,12.05,26.01,16.84,.36,.19,.71,.38,1.08,.56,3.29,1.68,6.66,3.21,10.11,4.57,41.2,16.19,87.78,19.13,131.24,10.72Z"/><path class="cls-9" d="M153.73,606.25l-.03,.06c-9.18-4.78-17.77-10.65-26.01-16.84-18.51-13.89-33.9-29.89-45.47-49.65-12.57-21.47-22.86-47.65-31-70.85-5.76-16.42-3.89-36.89-4.51-56.45-.06-1.86,1.58-7.42,2.03-9.13,1.29-4.9,4.97-8.64,9.52-11.2-4.4,2.89-8.2,6.81-9.43,11.52-.13,.5-.29,1.01-.45,1.52-.38,1.22-.78,2.47-.84,3.79-.11,2.6-.26,5.24-.41,8.03-.92,17.38,1.19,35.89,6.17,50.08,10.7,30.5,23.53,52.65,33.98,70.5,10.91,18.64,19.36,34.41,39.05,49.2,10.18,7.64,19.1,15.2,27.4,19.43Z"/></g><g><path class="cls-15" d="M419.37,379.11c-.02,13.94-21.27,58.9-28.29,66.4-2.12,2.26-2.76,5.4-1.81,8.3,1.5,4.58,15.31,19.17,16.62,26.76,5.9,34.1,.81,55.96-19.71,90.05-4.36,7.24-10.89,15-17.97,21.71-7.03,6.68-26.84,16.71-36.44,20.13-3.11,1.11-6.24,2.15-9.41,3.13h0c-8.57,2.66-17.34,4.86-26.24,6.57,7.36-1.71,14.65-3.77,21.85-6.16-11.53,3.39-23.45,5.97-35.49,7.66-13.3,1.88-26.81,2.69-40.15,2.41-13.56-.28-27.02-1.68-40.01-4.18-13.33-2.56-26.28-6.29-38.47-11.08-3.31-1.3-6.72-2.84-10.12-4.57-8.29-4.23-17.21-11.79-27.4-19.43-19.7-14.78-28.14-30.56-39.05-49.2-10.45-17.85-23.28-40-33.98-70.5-4.98-14.19-7.09-32.7-6.17-50.08,.15-2.79,.29-5.43,.41-8.03,.06-1.32,.45-2.58,.84-3.79,.16-.5,.32-1.01,.45-1.52,1.24-4.71,5.03-8.63,9.43-11.52,2.47-1.4,5.21-2.45,7.95-3.14,.08-.01,.16-.03,.23-.05,3.94-.95,8.18-.92,12.31,.38,7.91,2.5,16.83,25.28,22.15,31.4,12.61,14.5,29.71,23.25,48.31,29.59,20.86,7.1,42.02,13.86,63.23,15.17,7.2,.44,14.41,.27,21.61-.74h0c.69-.1,1.37-.2,2.06-.32-.15,.08-.23,.17-.23,.29,0,.51,10.6-1.75,14.34-2.84,3.6-1.05,7.25-2.3,11.15-3.83,2.31-.91,3.94-2.76,4.49-5.09,.54-2.3-.09-4.63-1.71-6.41-6.86-7.52-9.86-17.21-13.55-26.47-3.83-9.59-3.06-20.58-3.05-30.94,.03-17.8,6.22-33.48,17.75-50.21,11.53-16.73,42.61-36.51,42.61-36.51,0,0,13.31-7,21.58-7.54-.42-.01-.84-.02-1.24-.03,.99-.04,1.98-.06,2.97-.06,48.77,.08,88.23,37.81,88.16,84.28Z"/><path class="cls-5" d="M328.24,294.89c.4,.01,.81,.02,1.24,.03-8.27,.54-21.58,7.54-21.58,7.54,0,0-31.07,19.79-42.61,36.51-11.53,16.73-17.72,32.41-17.75,50.21-.02,10.36-.78,21.34,3.05,30.94,3.7,9.27,6.69,18.95,13.55,26.47,1.63,1.78,2.25,4.12,1.71,6.41-.54,2.33-2.18,4.18-4.49,5.09-3.9,1.53-7.55,2.78-11.15,3.83-3.74,1.09-14.34,3.34-14.34,2.84,0-.12,.08-.21,.23-.29h0c3.7-.6,7.39-1.42,11.08-2.49,3.8-1.1,7.5-2.4,11.16-3.83,4.86-1.91,6.25-7.81,2.79-11.6-13.51-14.81-16.68-36.2-16.64-57.37,.04-23.56,10.66-43.49,27.89-61.88,9.67-10.31,21.77-21.63,34.49-26.88,4.14-1.71,7.12-2.98,10.19-3.89,3.07-.9,6.23-1.43,10.71-1.64,.15,0,.31-.01,.46-.02Z"/><path class="cls-5" d="M328.24,294.89c-.15,0-.31,.01-.46,.02-4.48,.21-7.64,.74-10.71,1.64-3.07,.9-6.05,2.18-10.19,3.89-12.72,5.25-24.82,16.57-34.49,26.88-17.24,18.39-27.85,38.32-27.89,61.88-.03,21.16,3.13,42.56,16.64,57.37,3.45,3.78,2.07,9.69-2.79,11.6-3.65,1.43-7.36,2.73-11.16,3.83-3.69,1.07-7.38,1.89-11.08,2.49,.49-.28,1.69-.4,2.81-.73,3.6-1.06,9.8-2.52,13.7-4.06,2.33-.93,5.67-3.07,6.23-5.44,.55-2.36-.08-4.76-1.73-6.6-13.95-15.44-21.61-35.22-21.58-55.7,.06-37.13,26.76-76.26,62.11-91.03,9.64-4.03,19.5-6.06,29.29-6.05,.43,0,.86,0,1.3,.01Z"/><path class="cls-4" d="M282.48,623.67c12.04-1.7,23.96-4.27,35.49-7.66-7.2,2.39-14.49,4.45-21.85,6.16-43.45,8.41-90.04,5.46-131.24-10.72-3.45-1.36-6.82-2.9-10.11-4.57-.36-.18-.72-.37-1.08-.56l.03-.06c3.4,1.73,6.81,3.27,10.12,4.57,12.2,4.79,25.14,8.52,38.47,11.08,12.99,2.49,26.45,3.9,40.01,4.18,13.34,.28,26.85-.53,40.15-2.41Z"/><path class="cls-4" d="M296.12,622.17c-12.01,2.79-24.19,4.67-36.37,5.63-.08,0-.16,.01-.24,.02-1.55,.12-3.1,.23-4.66,.32-.25,0-.49,.02-.73,.05-1.12,.13-2.25,.24-3.39,.18-.33-.02-.67,0-1,.02-1.47,.05-2.94,.1-4.41,.12-.2,0-.39,0-.59,.01-1.47,.03-2.94,.04-4.42,.04-.1,0-.2,0-.3,0-.08,0-.16,0-.24,0-.57,0-1.15,0-1.72,0-.29,0-.58,0-.88-.01-27.8-.37-55.15-5.53-80.15-15.45-3.3-1.31-6.69-2.86-10.08-4.6-8.27-4.25-16.85-9.82-27-17.52-19.63-14.89-34.46-31.24-45.33-50.01-12.28-21.18-25.07-49.21-33.38-73.15-4.94-14.24-4.99-35.88-.13-57.91,.4-1.82,.83-3.62,1.28-5.33,2.53-9.69,12.48-16.66,23.08-16.12,0,.04,0,.03,0,.07-2.39,.91-4.89,2.15-7.22,3.68-4.55,2.56-8.23,6.31-9.52,11.2-.45,1.71-2.09,7.27-2.03,9.13,.63,19.56-1.25,40.03,4.51,56.45,8.14,23.2,18.43,49.38,31,70.85,11.57,19.76,26.97,35.76,45.47,49.65,8.24,6.18,16.82,12.05,26.01,16.84,.36,.19,.71,.38,1.08,.56,3.29,1.68,6.66,3.21,10.11,4.57,41.2,16.19,87.78,19.13,131.24,10.72Z"/><path class="cls-4" d="M153.73,606.25l-.03,.06c-9.18-4.78-17.77-10.65-26.01-16.84-18.51-13.89-33.9-29.89-45.47-49.65-12.57-21.47-22.86-47.65-31-70.85-5.76-16.42-3.89-36.89-4.51-56.45-.06-1.86,1.58-7.42,2.03-9.13,1.29-4.9,4.97-8.64,9.52-11.2-4.4,2.89-8.2,6.81-9.43,11.52-.13,.5-.29,1.01-.45,1.52-.38,1.22-.78,2.47-.84,3.79-.11,2.6-.26,5.24-.41,8.03-.92,17.38,1.19,35.89,6.17,50.08,10.7,30.5,23.53,52.65,33.98,70.5,10.91,18.64,19.36,34.41,39.05,49.2,10.18,7.64,19.1,15.2,27.4,19.43Z"/></g></g><g><g><path class="cls-11" d="M425.7,380.87c-.35-.18-.69-.37-1.02-.54-1.99-1.07-4.12-1.58-6.25-1.53-.01,0-.03,0-.04,0,2.05,0,4.1,.46,6.02,1.43,.41,.21,.84,.42,1.29,.64Z"/><path class="cls-11" d="M463.11,398.72c-1.09,2.14-2.85,3.84-4.78,5.35-4.05,3.16-8.24,6.14-12.55,8.94-12.65,8.21-21.94,8.15-35.38,2.54-6.42-2.68-21.67-8.11-23.58-16,0,.03-.02,.07-.03,.1-.05,.24-.07,.49-.06,.74,.28,6.68,12.76,12.27,17.59,14.77,12.98,6.74,27.09,10.64,40.24,2.2,4.7-3.02,8.77-6.91,12.8-10.77,2.38-2.28,4.74-4.67,5.75-7.88Z"/><path class="cls-11" d="M424.77,420.26c11.88,2.43,25.22-10.48,33.66-17,1.42-1.1,2.89-2.25,3.72-3.84,3.45-6.55-5.5-5.99-9.15-6.68-10.09-1.92-18.28-7.34-27.3-11.86-.44-.22-.87-.44-1.29-.64-1.92-.97-3.97-1.44-6.02-1.43-.06,0-.12,0-.18,0-2.03,.04-4.05,.55-5.94,1.54-.42,.22-.85,.45-1.3,.69-9.02,4.79-23.15,12.83-24.18,17.24-.05,.22-.07,.45-.06,.69,0,.19,.04,.39,.09,.6,1.65,6.78,25.33,18.12,37.95,20.7Z"/></g><g><path class="cls-8" d="M425.7,380.87c-.35-.18-.69-.37-1.02-.54-1.99-1.07-4.12-1.58-6.25-1.53-.01,0-.03,0-.04,0,2.05,0,4.1,.46,6.02,1.43,.41,.21,.84,.42,1.29,.64Z"/><path class="cls-8" d="M463.11,398.72c-1.09,2.14-2.85,3.84-4.78,5.35-4.05,3.16-8.24,6.14-12.55,8.94-12.65,8.21-21.94,8.15-35.38,2.54-6.42-2.68-21.67-8.11-23.58-16,0,.03-.02,.07-.03,.1-.05,.24-.07,.49-.06,.74,.28,6.68,12.76,12.27,17.59,14.77,12.98,6.74,27.09,10.64,40.24,2.2,4.7-3.02,8.77-6.91,12.8-10.77,2.38-2.28,4.74-4.67,5.75-7.88Z"/><path class="cls-3" d="M424.77,420.26c11.88,2.43,25.22-10.48,33.66-17,1.42-1.1,2.89-2.25,3.72-3.84,3.45-6.55-5.5-5.99-9.15-6.68-10.09-1.92-18.28-7.34-27.3-11.86-.44-.22-.87-.44-1.29-.64-1.92-.97-3.97-1.44-6.02-1.43-.06,0-.12,0-.18,0-2.03,.04-4.05,.55-5.94,1.54-.42,.22-.85,.45-1.3,.69-9.02,4.79-23.15,12.83-24.18,17.24-.05,.22-.07,.45-.06,.69,0,.19,.04,.39,.09,.6,1.65,6.78,25.33,18.12,37.95,20.7Z"/></g></g><line class="cls-12" x1="418" y1="386.38" x2="429" y2="391.38"/><line class="cls-12" x1="443" y1="398.38" x2="448" y2="400.38"/><path class="cls-6" d="M386.45,410.03c-1.25,.35-2.2,1.29-2.66,3.08-1.42,5.43,5.28,9.94,4.32,14.91-.56,2.89-5.2,6.52-7.02,8.79-3.16,3.93-6.23,7.93-9.19,12.01-.61,.84-1.24,1.73-1.38,2.76-.17,1.22,.37,2.42,.99,3.49,3.35,5.78,9.01,9.51,13.44,14.35,5.37,5.86,7.39,14,9.71,21.38,2.02,6.42,4.05,12.85,6.07,19.27,.71,2.24,1.3,7.58,2.85,9.24,.84,.91,3.39,3.52,3.91,.18l2.27-14.58c.01-.08,.02-.16,0-.24-.18-2.12-3.31-20.48-4.24-25.85-.15-.87-.46-1.7-.91-2.46-4.1-6.91-8.32-13.76-12.26-20.77-1.88-3.35-2.13-3.28-1.34-6.5,1.75-7.11,8.31-15.18,11.85-21.64,3.44-6.29,2.08-8.65-3.26-12.17-3.38-2.22-8.78-6.49-13.16-5.26Z"/><circle cx="367.49" cy="355.46" r="19.27"/><path class="cls-16" d="M386.77,353.69c0,10.03-8.45,18.09-18.62,17.46-8.71-.54-15.8-7.63-16.35-16.35-.63-10.17,7.43-18.62,17.46-18.62,4.86,0,9.25,1.98,12.42,5.18,.65,.66,1.26,1.37,1.8,2.13,1.8,2.5,2.95,5.5,3.21,8.75,.01,.09,.02,.18,.03,.27,.03,.39,.04,.78,.04,1.17Z"/><ellipse class="cls-1" cx="372.57" cy="355.72" rx="7.61" ry="8.88"/><path class="cls-1" d="M386.7,352.25c-.37,.11-.76,.17-1.17,.17-2.4,0-4.35-2.13-4.35-4.74,0-1.81,.93-3.38,2.3-4.18,1.8,2.5,2.95,5.5,3.21,8.75Z"/><path class="cls-13" d="M231.05,525.57c-38.02,2.24-94.02-10.66-108.16-51.45-3.97-11.45-2.98-23.6-3.06-35.48-.02-3.26,1.42-6.42,4.07-8.33,8.8-6.34,20.43,5.38,27.69,9.09s14.77,6.85,22.49,9.42c22.59,7.51,46.14,8.34,69.67,10.08"/><path class="cls-4" d="M124.28,458.29s0,0,0,0c-.02,.2,8.99,7.37,9.57,7.89,3.93,3.47,7.97,6.82,12.11,10.04,11.88,9.25,24.97,17.7,38.35,25.02,7.03,3.85,14.21,7.43,21.49,10.79,3.53,1.63,7.08,3.2,10.66,4.72,2.8,1.19,11.15,1.69,14.03,3.59,.33,.22,.34,.7,.02,.93-6.55,4.61-25.74,1-32.66,.2-10.65-1.23-21.09-4.23-30.88-8.58-11.01-4.89-22.2-11.4-29.79-21.01-.94-1.19-1.59-2.59-2.6-3.71-3.93-4.37-6.22-10.53-8.32-15.69-1.61-3.96-3.02-10-1.97-14.17Z"/><ellipse class="cls-4" cx="351.77" cy="387.42" rx="14.71" ry="8.62"/></g></g></g></g></svg>