<?xml version="1.0" encoding="UTF-8"?><svg width="100" height="100" id="Layer_2" xmlns="http://www.w3.org/2000/svg" viewBox="0 0 734.02 782.6"><defs><style>.cls-1,.cls-2{fill:#fff;}.cls-3{stroke-width:10px;}.cls-3,.cls-4,.cls-5,.cls-6{stroke-linecap:round;}.cls-3,.cls-4,.cls-6{fill:none;stroke:#363838;}.cls-3,.cls-5{stroke-miterlimit:10;}.cls-7{fill:#363838;}.cls-4{stroke-width:11px;}.cls-4,.cls-6{stroke-linejoin:round;}.cls-5{fill:#f79857;stroke:#fff;stroke-width:6px;}.cls-6{stroke-width:12px;}.cls-2{font-family:SourceSansRoman-Semibold, 'Source Sans Variable';font-size:700px;font-variation-settings:'wght' 600;font-weight:600;}.cls-8{fill:#d83558;}</style></defs><g id="Layer_1-2"><g><rect class="cls-5" x="163.02" y="95.38" width="568" height="568"/><text class="cls-2" transform="translate(298.11 581)"><tspan x="0" y="0">2</tspan></text><g><path class="cls-8" d="M338.02,385.39c0-93.34-75.67-169.01-169.01-169.01S0,292.05,0,385.39c0,42.15,30.64,93.14,30.64,93.14,5.67,9.43,15.34,24.6,21.51,33.71l31.59,46.7c6.16,9.11,16.25,24.02,22.41,33.13l51.65,76.37c6.16,9.11,16.25,9.11,22.41,0l51.65-76.37c6.16-9.11,16.25-24.02,22.41-33.13l31.59-46.7c6.16-9.11,15.84-24.28,21.51-33.71,0,0,30.64-51,30.64-93.14Z"/><circle class="cls-1" cx="169.01" cy="356.43" r="68.98"/><line class="cls-4" x1="168.72" y1="314.62" x2="169.02" y2="356.13"/><line class="cls-6" x1="186.34" y1="335.23" x2="169.32" y2="355.98"/><line class="cls-3" x1="169.02" y1="291.63" x2="169.02" y2="298.2"/><line class="cls-3" x1="123.41" y1="310.52" x2="128.06" y2="315.17"/><line class="cls-3" x1="104.52" y1="356.13" x2="111.09" y2="356.13"/><line class="cls-3" x1="123.41" y1="401.73" x2="128.06" y2="397.09"/><line class="cls-3" x1="169.02" y1="420.63" x2="169.02" y2="414.06"/><line class="cls-3" x1="214.63" y1="401.73" x2="209.98" y2="397.09"/><line class="cls-3" x1="233.52" y1="356.13" x2="226.95" y2="356.13"/><line class="cls-3" x1="214.63" y1="310.52" x2="209.98" y2="315.17"/><circle class="cls-7" cx="168.72" cy="356.43" r="6.27"/></g></g></g></svg>