<?xml version="1.0" encoding="UTF-8"?><svg width="150" height="150" id="Layer_2" xmlns="http://www.w3.org/2000/svg" viewBox="0 0 727.41 976.05"><defs><style>.cls-1,.cls-2,.cls-3{fill:#fff;}.cls-4{stroke-width:10px;}.cls-4,.cls-5,.cls-6,.cls-7{stroke-linecap:round;}.cls-4,.cls-5,.cls-7{fill:none;stroke:#363838;}.cls-4,.cls-6{stroke-miterlimit:10;}.cls-8{fill:#363838;}.cls-5{stroke-width:11px;}.cls-5,.cls-7{stroke-linejoin:round;}.cls-9{letter-spacing:0em;}.cls-2{font-family:SourceSansRoman-Semibold, 'Source Sans Variable';font-size:700px;font-variation-settings:'wght' 600;font-weight:600;isolation:isolate;}.cls-6{fill:#f79857;stroke:#fff;stroke-width:6px;}.cls-10{fill:#fcc74c;font-size:150px;}.cls-10,.cls-3{font-family:Montserrat-Medium, Montserrat;font-weight:500;}.cls-3{font-size:100px;}.cls-11{letter-spacing:0em;}.cls-7{stroke-width:12px;}.cls-12{fill:#d83558;}.cls-13{letter-spacing:0em;}</style></defs><g id="Isolation_Mode"><g><g><rect class="cls-6" x="156.41" y="65.32" width="568" height="568"/><path class="cls-12" d="M318.94,356.88c0-88.07-71.4-159.47-159.47-159.47S0,268.81,0,356.88c0,39.77,28.91,87.88,28.91,87.88,5.35,8.9,14.47,23.21,20.3,31.81l29.81,44.06c5.81,8.6,15.33,22.66,21.15,31.26l48.74,72.06c5.81,8.6,15.33,8.6,21.15,0l48.74-72.06c5.81-8.6,15.33-22.66,21.15-31.26l29.81-44.06c5.81-8.6,14.95-22.91,20.3-31.81,0,0,28.91-48.12,28.91-87.88h0Z"/><circle class="cls-1" cx="159.47" cy="329.55" r="65.09"/><line class="cls-5" x1="159.2" y1="290.1" x2="159.48" y2="329.27"/><line class="cls-7" x1="175.82" y1="309.55" x2="159.76" y2="329.13"/><line class="cls-4" x1="159.48" y1="268.41" x2="159.48" y2="274.61"/><line class="cls-4" x1="116.45" y1="286.23" x2="120.83" y2="290.62"/><line class="cls-4" x1="98.62" y1="329.27" x2="104.82" y2="329.27"/><line class="cls-4" x1="116.45" y1="372.3" x2="120.83" y2="367.92"/><line class="cls-4" x1="159.48" y1="390.13" x2="159.48" y2="383.93"/><line class="cls-4" x1="202.52" y1="372.3" x2="198.13" y2="367.92"/><line class="cls-4" x1="220.34" y1="329.27" x2="214.14" y2="329.27"/><line class="cls-4" x1="202.52" y1="286.23" x2="198.13" y2="290.62"/><circle class="cls-8" cx="159.2" cy="329.55" r="5.92"/><text class="cls-2" transform="translate(280.69 581)"><tspan x="0" y="0">2</tspan></text></g><text class="cls-3" transform="translate(185.75 788.88)"><tspan x="0" y="0">TIME AND</tspan></text><text class="cls-10" transform="translate(185.75 936.6)"><tspan class="cls-11" x="0" y="0">P</tspan><tspan class="cls-13" x="106.8" y="0">L</tspan><tspan class="cls-11" x="196.35" y="0">A</tspan><tspan class="cls-9" x="304.65" y="0">CE</tspan></text></g></g></svg>